<svg width="252" height="60" viewBox="0 0 252 60" fill="none" xmlns="http://www.w3.org/2000/svg">
<path d="M220 50L249 50" stroke="black"/>
<path d="M36 50L60 50" stroke="black"/>
<path d="M37.3174 20.8799L51.8291 20.8135L51.9307 42.0107L37.4189 42.0771L37.4873 56.3301L18.5 56.3809L15.7139 53L15.6543 42.1768L2.03223 42.2402L1.93066 22.5547L3.26758 21.0371L15.5391 20.9805L15.4746 9L18.5 6.51758L37.249 6.43066L37.3174 20.8799Z" fill="#53DDFF"/>
<path d="M31 21H2.88119L1 24.3196V39H2" stroke="black"/>
<path d="M16 21V8.52174L18.0602 7H31" stroke="black"/>
<path d="M38 21V13.7143L36 11.6327V4" stroke="black"/>
<path d="M6 42L15.3731 42V53.4074L17.5 56L36 56" stroke="black"/>
<path d="M54 42H38.0357L36 43.7778V58H22" stroke="black"/>
<circle cx="2" cy="2" r="1.5" transform="matrix(-1 0 0 1 54 16)" stroke="black"/>
<circle cx="2" cy="2" r="1.5" transform="matrix(-1 0 0 1 57 40)" stroke="black"/>
<circle cx="2" cy="2" r="1.5" transform="matrix(-1 0 0 1 23 56)" stroke="black"/>
<circle cx="2" cy="2" r="1.5" transform="matrix(-1 0 0 1 38 0)" stroke="black"/>
<circle cx="2" cy="2" r="1.5" transform="matrix(-1 0 0 1 34 5)" stroke="black"/>
<circle cx="2" cy="2" r="1.5" transform="matrix(-1 0 0 1 34 19)" stroke="black"/>
<circle cx="2" cy="2" r="1.5" transform="matrix(-1 0 0 1 7 40)" stroke="black"/>
<circle cx="1" cy="1" r="0.75" transform="matrix(-1 0 0 1 56 20)" stroke="black" stroke-width="0.5"/>
<path d="M50 42V26.5234L52 24.3738V19" stroke="black"/>
<path d="M37.5 21L54.5 21" stroke="black" stroke-width="0.5"/>
<path d="M225.316 40.0797C222.868 40.0797 221.044 40.4637 219.844 41.2317C218.644 41.9997 218.044 43.2717 218.044 45.0477C218.044 46.6797 218.644 47.9997 219.844 49.0077C221.092 50.0157 222.771 50.5197 224.883 50.5197C226.755 50.5197 228.435 50.2077 229.923 49.5837C231.459 48.9117 232.659 48.0237 233.523 46.9197C234.435 45.7677 234.963 44.4957 235.107 43.1037L236.691 49.7997C235.539 52.2957 233.763 54.1917 231.363 55.4877C228.963 56.7837 226.06 57.4317 222.652 57.4317C219.916 57.4317 217.539 56.9037 215.523 55.8477C213.507 54.7917 211.948 53.3757 210.844 51.5997C209.74 49.7757 209.188 47.7357 209.188 45.4797C209.188 41.9277 210.459 39.1437 213.003 37.1277C215.547 35.0637 219.147 34.0077 223.803 33.9597H236.115V40.0797H225.316ZM235.036 32.8077C235.036 30.5037 234.291 28.7037 232.803 27.4077C231.363 26.0637 229.204 25.3917 226.324 25.3917C224.548 25.3917 222.676 25.7277 220.708 26.3997C218.788 27.0237 216.844 27.9357 214.876 29.1357L211.492 23.0877C213.316 21.9837 215.067 21.0957 216.747 20.4237C218.427 19.7037 220.179 19.1757 222.003 18.8397C223.875 18.4557 226.011 18.2637 228.411 18.2637C233.451 18.2637 237.34 19.4637 240.076 21.8637C242.812 24.2637 244.203 27.5757 244.251 31.7997L244.324 56.9997H235.107L235.036 32.8077Z" fill="#53DDFF"/>
<path d="M191.403 18.6238H200.763V56.9998H191.403V18.6238ZM196.011 2.27979C197.547 2.27979 198.819 2.78378 199.827 3.79179C200.835 4.79978 201.339 6.07178 201.339 7.60778C201.339 9.09579 200.835 10.3678 199.827 11.4238C198.819 12.4318 197.547 12.9358 196.011 12.9358C194.523 12.9358 193.275 12.4318 192.267 11.4238C191.259 10.3678 190.755 9.09579 190.755 7.60778C190.755 6.07178 191.259 4.79978 192.267 3.79179C193.275 2.78378 194.523 2.27979 196.011 2.27979Z" fill="#53DDFF"/>
<path d="M146.827 18.624H156.619L166.699 48.36L176.563 18.624H185.995L171.307 57H161.659L146.827 18.624Z" fill="#53DDFF"/>
<path d="M131.364 3.57568H140.724V56.9997H131.364V3.57568Z" fill="#53DDFF"/>
<path d="M110.051 18.6238H119.411V56.9998H110.051V18.6238ZM114.659 2.27979C116.195 2.27979 117.467 2.78378 118.475 3.79179C119.483 4.79978 119.987 6.07178 119.987 7.60778C119.987 9.09579 119.483 10.3678 118.475 11.4238C117.467 12.4318 116.195 12.9358 114.659 12.9358C113.171 12.9358 111.923 12.4318 110.915 11.4238C109.907 10.3678 109.403 9.09579 109.403 7.60778C109.403 6.07178 109.907 4.79978 110.915 3.79179C111.923 2.78378 113.171 2.27979 114.659 2.27979Z" fill="#53DDFF"/>
<path d="M96.8801 19.0559C95.1041 17.9519 93.2801 17.0399 91.4081 16.3199C89.5841 15.5999 87.8561 15.0959 86.2241 14.8079C84.5921 14.4719 83.1041 14.3039 81.7601 14.3039C79.5041 14.3039 77.6801 14.7359 76.2881 15.5999C74.9441 16.4639 74.2721 17.7359 74.2721 19.4159C74.2721 20.9519 74.7521 22.1999 75.7121 23.1599C76.7201 24.1199 78.0161 24.9119 79.6001 25.5359C81.2321 26.1599 83.0081 26.7599 84.9281 27.3359C86.8481 27.9119 88.7681 28.5599 90.6881 29.2799C92.6081 29.9519 94.3601 30.8399 95.9441 31.9439C97.5761 33.0479 98.8721 34.4639 99.8321 36.1919C100.792 37.9199 101.272 40.0799 101.272 42.6719C101.272 45.7919 100.432 48.4559 98.7521 50.6639C97.0721 52.8719 94.7681 54.5759 91.8401 55.7759C88.9601 56.9759 85.6721 57.5759 81.9761 57.5759C79.2881 57.5759 76.6481 57.2399 74.0561 56.5679C71.5121 55.8479 69.0881 54.8879 66.7841 53.6879C64.5281 52.4879 62.4881 51.0959 60.6641 49.5119L64.6961 41.6639C66.4241 43.2479 68.2961 44.6159 70.3121 45.7679C72.3281 46.8719 74.3441 47.7359 76.3601 48.3599C78.4241 48.9359 80.3441 49.2239 82.1201 49.2239C84.8561 49.2239 86.9681 48.6959 88.4561 47.6399C89.9921 46.5839 90.7601 45.0959 90.7601 43.1759C90.7601 41.5919 90.2561 40.3199 89.2481 39.3599C88.2881 38.3999 87.0161 37.6079 85.4321 36.9839C83.8481 36.3119 82.0721 35.7359 80.1041 35.2559C78.1841 34.7279 76.2641 34.1279 74.3441 33.4559C72.4241 32.7359 70.6481 31.8479 69.0161 30.7919C67.4321 29.6879 66.1361 28.2959 65.1281 26.6159C64.1681 24.9359 63.6881 22.7999 63.6881 20.2079C63.6881 17.2799 64.4801 14.7599 66.0641 12.6479C67.6481 10.4879 69.8321 8.83188 72.6161 7.67988C75.4481 6.47988 78.7601 5.87988 82.5521 5.87988C85.9121 5.87988 89.1761 6.35988 92.3441 7.31988C95.5601 8.27988 98.3681 9.55188 100.768 11.1359L96.8801 19.0559Z" fill="#53DDFF"/>
<path d="M228.411 17.7637C233.526 17.7637 237.548 18.9821 240.405 21.4883C243.176 23.9189 244.611 27.2382 244.743 31.3896L244.751 31.7939L244.752 31.7979L244.823 56.998L244.825 57.5H234.609L234.607 57.001L234.597 53.7041C233.85 54.4535 233.006 55.1101 232.062 55.668L231.601 55.9277C229.112 57.2716 226.122 57.9316 222.651 57.9316C220.026 57.9316 217.701 57.4563 215.689 56.4902L215.291 56.291C213.334 55.2658 211.779 53.9052 210.641 52.208L210.419 51.8633L210.416 51.8584C209.262 49.9517 208.688 47.8212 208.688 45.4795C208.688 41.7914 210.017 38.8559 212.693 36.7354C215.355 34.5783 219.079 33.5086 223.799 33.46H234.537L234.535 32.8096V32.8076L234.527 32.4043C234.446 30.4172 233.751 28.8959 232.476 27.7852L232.462 27.7734C231.15 26.5486 229.134 25.8916 226.323 25.8916C224.611 25.8916 222.794 26.2159 220.869 26.873L220.862 26.875C218.984 27.4854 217.075 28.38 215.136 29.5625L214.692 29.833L214.439 29.3799L211.055 23.332L210.819 22.9102L211.232 22.6602C212.846 21.6838 214.407 20.8714 215.918 20.2256L216.562 19.959C218.058 19.3183 219.611 18.8272 221.219 18.4854L221.913 18.3477C223.823 17.9568 225.99 17.7637 228.411 17.7637ZM225.315 40.5801C223.053 40.5801 221.41 40.9148 220.323 41.5264L220.113 41.6523C219.093 42.3052 218.544 43.3943 218.544 45.0479C218.544 46.5391 219.083 47.7165 220.165 48.625C221.299 49.5373 222.854 50.0195 224.884 50.0195C226.697 50.0195 228.307 49.7184 229.723 49.126L229.995 49.002C231.337 48.374 232.376 47.5743 233.13 46.6113L233.132 46.6094L233.288 46.4053C233.978 45.4736 234.4 44.4675 234.566 43.3828L234.559 40.5801H225.315Z" stroke="black"/>
<path d="M201.263 18.1235V57.4995H190.903V18.1235H201.263ZM196.011 1.77979C197.668 1.77979 199.071 2.32849 200.181 3.43799L200.382 3.6499C201.356 4.72427 201.839 6.05428 201.839 7.60791C201.839 9.22168 201.287 10.6181 200.188 11.769L200.181 11.7778L200.18 11.7769C199.07 12.8863 197.668 13.436 196.011 13.436C194.397 13.436 193.019 12.8831 191.913 11.7769L191.905 11.769C190.807 10.6181 190.255 9.22168 190.255 7.60791C190.255 5.95066 190.804 4.54749 191.913 3.43799L192.124 3.23682C193.193 2.26484 194.498 1.77981 196.011 1.77979Z" stroke="black"/>
<path d="M156.978 18.124L157.093 18.4639L166.693 46.7861L176.089 18.4668L176.202 18.124H186.722L186.462 18.8027L171.774 57.1787L171.651 57.5H161.316L161.192 57.1807L146.36 18.8047L146.098 18.124H156.978Z" stroke="black"/>
<path d="M141.225 3.07568V57.4995H130.864V3.07568H141.225Z" stroke="black"/>
<path d="M119.911 18.1235V57.4995H109.552V18.1235H119.911ZM114.659 1.77979C116.316 1.77979 117.72 2.32849 118.829 3.43799L119.03 3.6499C120.005 4.72427 120.487 6.05428 120.487 7.60791C120.487 9.22168 119.936 10.6181 118.837 11.769L118.829 11.7778L118.828 11.7769C117.719 12.8863 116.316 13.436 114.659 13.436C113.045 13.436 111.668 12.8831 110.562 11.7769L110.554 11.769C109.455 10.6181 108.903 9.22168 108.903 7.60791C108.903 5.95066 109.452 4.54749 110.562 3.43799L110.772 3.23682C111.841 2.26484 113.146 1.77982 114.659 1.77979Z" stroke="black"/>
<path d="M82.5518 5.37988C85.9592 5.37988 89.2714 5.8669 92.4863 6.84082H92.4873C95.7425 7.81254 98.597 9.10375 101.044 10.7188L101.411 10.9609L101.217 11.3564L97.3291 19.2764L97.085 19.7725L96.6162 19.4805C94.8658 18.3924 93.0699 17.4943 91.2285 16.7861L91.2246 16.7852C89.4263 16.0753 87.7303 15.581 86.1367 15.2998L86.123 15.2979C84.5167 14.9671 83.0629 14.8037 81.7598 14.8037C79.567 14.8037 77.8452 15.2226 76.5576 16.0195L76.5586 16.0205C75.3663 16.787 74.7725 17.8956 74.7725 19.416C74.7725 20.8335 75.2088 21.9454 76.0566 22.7979L76.4277 23.1309C77.3234 23.8921 78.4385 24.5406 79.7832 25.0703H79.7822C81.4002 25.6888 83.1629 26.2849 85.0713 26.8574C86.9986 27.4356 88.926 28.0854 90.8525 28.8076H90.8535C92.8115 29.4929 94.6021 30.4001 96.2236 31.5293H96.2246C97.9218 32.6774 99.2715 34.1528 100.27 35.9492C101.282 37.771 101.772 40.0207 101.772 42.6719C101.772 45.8869 100.905 48.661 99.1504 50.9668C97.4096 53.2547 95.0289 55.0074 92.0312 56.2363L92.0322 56.2373C89.0812 57.4669 85.7256 58.0762 81.9756 58.0762C79.2456 58.0761 76.5636 57.7344 73.9307 57.0518L73.9199 57.0488C71.3437 56.3197 68.8875 55.3469 66.5527 54.1309L66.5488 54.1289C64.5477 53.0644 62.7116 51.8499 61.042 50.4844L60.3359 49.8896L60.04 49.6318L60.2197 49.2832L64.251 41.4355L64.5508 40.8525L65.0342 41.2949C66.734 42.8531 68.5747 44.1981 70.5566 45.3311C72.5424 46.4182 74.524 47.2672 76.502 47.8799C78.5281 48.4447 80.3998 48.7236 82.1201 48.7236C84.8013 48.7236 86.7962 48.2052 88.167 47.2324L88.1729 47.2275L88.4258 47.0439C89.6519 46.1007 90.2598 44.8272 90.2598 43.1758C90.2597 41.708 89.7982 40.5739 88.9033 39.7217L88.8945 39.7139C87.9937 38.8131 86.7848 38.0542 85.249 37.4492L85.2363 37.4443C83.6812 36.7846 81.9314 36.2159 79.9854 35.7412L79.9785 35.7402L79.9717 35.7383C78.0405 35.2072 76.1092 34.6034 74.1787 33.9277L74.1689 33.9238C72.2171 33.1919 70.4079 32.2885 68.7441 31.2119L68.7305 31.2021C67.0877 30.0572 65.743 28.6126 64.6992 26.873L64.6934 26.8643V26.8633C63.6783 25.0865 63.1885 22.8581 63.1885 20.208C63.1885 17.3732 63.9087 14.8858 65.3633 12.7666L65.6641 12.3477C67.2057 10.2471 69.2889 8.61484 71.8965 7.44531L72.4248 7.21777C75.3301 5.98743 78.7097 5.37992 82.5518 5.37988Z" stroke="black"/>
<path d="M100 50L158 50" stroke="black"/>
<path d="M174.5 50L209.5 50" stroke="black"/>
<circle cx="2" cy="2" r="1.5" transform="matrix(-1 0 0 1 252 48)" stroke="black"/>
</svg>
