<svg width="1754" height="723" viewBox="0 0 1754 723" fill="none" xmlns="http://www.w3.org/2000/svg">
<path d="M0.390248 361.828C0.17472 280.79 65.6947 214.92 146.733 214.705L411.714 214L412.494 507.466L147.514 508.171C66.4752 508.387 0.605777 442.867 0.390248 361.828Z" fill="white"/>
<path d="M1752.84 354.896C1752.41 435.934 1686.37 501.279 1605.33 500.848L1533 500.463L1534.56 207L1606.89 207.384C1687.93 207.815 1753.27 273.859 1752.84 354.896Z" fill="white"/>
<rect x="267.389" y="722.701" width="721.33" height="293.467" rx="146.734" transform="rotate(-90.2692 267.389 722.701)" fill="white"/>
<path d="M591.263 470.8C585.663 463.867 582.863 458.667 582.863 455.2C582.863 451.467 585.929 446.533 592.063 440.4C598.463 434 602.596 430.533 604.463 430C606.596 429.467 608.596 429.2 610.463 429.2C612.329 429.2 615.396 430.4 619.663 432.8C639.396 448.267 656.729 456 671.663 456C686.596 456 696.329 452.533 700.863 445.6C705.396 438.667 707.663 429.6 707.663 418.4C707.663 407.2 703.663 398.133 695.663 391.2C687.663 384.267 674.463 375.867 656.063 366C637.929 356.133 622.063 343.333 608.463 327.6C594.863 311.867 588.063 295.6 588.063 278.8C588.063 248.933 595.796 227.2 611.263 213.6C626.996 199.733 649.929 192.8 680.063 192.8C698.463 192.8 716.463 197.2 734.063 206C743.396 209.733 747.796 213.6 747.263 217.6C746.996 219.2 746.729 221.6 746.463 224.8C741.396 239.2 737.529 247.467 734.863 249.6C734.063 250.133 732.196 250.4 729.263 250.4C726.596 250.4 719.263 248.267 707.263 244C695.263 239.467 684.996 237.2 676.463 237.2C668.196 237.2 661.263 240.133 655.663 246C650.063 251.867 647.263 260.133 647.263 270.8C647.263 281.467 652.063 291.2 661.663 300C671.263 308.533 686.063 317.467 706.063 326.8C727.129 337.733 742.863 349.067 753.263 360.8C763.929 372.533 769.263 388.267 769.263 408C769.263 473.6 741.529 506.4 686.063 506.4C644.729 506.4 613.129 494.533 591.263 470.8ZM799.847 500V301.6C799.847 297.333 804.647 295.2 814.247 295.2C823.847 295.2 832.914 295.867 841.447 297.2C849.98 298.533 854.247 300 854.247 301.6V500C854.247 501.6 854.114 502.667 853.847 503.2C852.514 505.333 847.447 506.4 838.647 506.4C829.847 506.4 821.18 505.733 812.647 504.4C804.114 503.067 799.847 501.6 799.847 500ZM824.647 250.4C805.447 250.4 795.847 240.8 795.847 221.6C795.847 202.4 805.447 192.8 824.647 192.8C843.847 192.8 853.447 202.4 853.447 221.6C853.447 240.8 843.847 250.4 824.647 250.4ZM943.672 500C943.672 501.6 943.405 502.667 942.872 503.2C941.805 505.333 936.872 506.4 928.072 506.4C919.272 506.4 910.605 505.733 902.072 504.4C893.805 503.067 889.672 501.6 889.672 500V199.2C889.672 194.933 894.339 192.8 903.672 192.8C913.005 192.8 920.739 193.467 926.872 194.8C933.005 195.867 936.205 197.333 936.472 199.2L943.672 327.6V500ZM968.744 300.4C968.744 296.933 973.544 295.2 983.144 295.2C993.01 295.2 1002.08 295.867 1010.34 297.2C1018.88 298.533 1023.28 300 1023.54 301.6L1059.14 451.2L1090.34 301.6C1091.41 297.333 1095.68 295.2 1103.14 295.2C1110.61 295.2 1116.88 295.467 1121.94 296C1134.21 297.333 1140.08 299.2 1139.54 301.6L1139.14 302.4L1089.14 500C1088.08 504.267 1082.88 506.4 1073.54 506.4C1064.48 506.4 1054.74 505.733 1044.34 504.4C1034.21 503.067 1028.88 501.6 1028.34 500L969.144 302.4V301.6C968.877 301.067 968.744 300.667 968.744 300.4ZM1171.83 451.6H1186.23V247.2H1174.23C1168.9 246.933 1165.3 245.2 1163.43 242C1161.57 238.267 1160.63 231.467 1160.63 221.6C1160.63 206.667 1165.03 199.2 1173.83 199.2H1244.63C1256.37 199.2 1262.23 203.333 1262.23 211.6C1262.23 235.333 1257.57 247.2 1248.23 247.2H1238.23L1242.23 327.2L1242.63 451.6H1254.63C1263.97 451.867 1268.63 456.133 1268.63 464.4C1268.1 488.133 1261.57 500 1249.03 500H1173.43C1168.63 499.733 1165.3 498 1163.43 494.8C1161.57 491.067 1160.63 484.133 1160.63 474C1160.63 459.067 1164.37 451.6 1171.83 451.6ZM1397.51 192.4C1415.91 192.4 1425.91 196.533 1427.51 204.8L1454.71 327.6L1482.31 491.2C1482.85 493.867 1483.11 496.4 1483.11 498.8C1483.11 500.933 1482.45 502.667 1481.11 504C1479.78 505.6 1475.25 506.4 1467.51 506.4C1443.78 506.4 1431.11 501.333 1429.51 491.2L1415.51 408.8H1359.51L1347.11 491.6C1346.31 497.2 1345.25 500.933 1343.91 502.8C1342.85 504.667 1341.25 505.733 1339.11 506C1336.98 506.267 1333.51 506.4 1328.71 506.4H1317.51C1308.18 506.4 1302.31 505.867 1299.91 504.8C1294.05 502.667 1290.71 500.267 1289.91 497.6C1289.65 496.267 1289.51 495.067 1289.51 494C1289.51 492.933 1292.31 475.333 1297.91 441.2C1303.51 407.067 1310.31 366.4 1318.31 319.2C1326.58 272 1331.91 241.067 1334.31 226.4C1336.98 211.733 1338.45 203.467 1338.71 201.6C1339.78 195.467 1359.38 192.4 1397.51 192.4ZM1385.51 244.8L1367.11 360.4H1406.71L1385.51 244.8Z" fill="white"/>
</svg>
