<svg width="252" height="89" viewBox="0 0 252 89" fill="none" xmlns="http://www.w3.org/2000/svg">
<path d="M248.189 86V75.8052H249.699V86H248.189Z" fill="black"/>
<path d="M243.672 86.1769C242.471 86.1769 241.57 85.892 240.969 85.3222C240.374 84.7473 240.076 83.9208 240.076 82.8428V81.6108C240.076 80.5482 240.353 79.7269 240.908 79.1468C241.467 78.5616 242.281 78.269 243.349 78.269C244.072 78.269 244.676 78.4025 245.158 78.6694C245.641 78.9312 246.003 79.3034 246.244 79.7859C246.485 80.2685 246.606 80.8408 246.606 81.503V81.7879C246.606 81.9625 246.598 82.1396 246.583 82.3192C246.567 82.4989 246.547 82.6709 246.521 82.8351H245.135C245.145 82.5682 245.15 82.3167 245.15 82.0805C245.156 81.8444 245.158 81.6288 245.158 81.4337C245.158 81.0179 245.091 80.6663 244.958 80.3788C244.825 80.0914 244.624 79.8732 244.357 79.7243C244.09 79.5703 243.754 79.4933 243.349 79.4933C242.748 79.4933 242.301 79.6653 242.009 80.0092C241.716 80.348 241.57 80.8331 241.57 81.4645V82.1729L241.578 82.35V83.0199C241.578 83.3023 241.619 83.5589 241.701 83.7899C241.788 84.0209 241.924 84.2211 242.109 84.3905C242.299 84.5548 242.543 84.6831 242.84 84.7755C243.138 84.8628 243.5 84.9064 243.926 84.9064C244.409 84.9064 244.86 84.8448 245.281 84.7216C245.707 84.5984 246.108 84.4342 246.483 84.2288L246.344 85.5147C246.005 85.7149 245.61 85.8766 245.158 85.9998C244.712 86.1179 244.216 86.1769 243.672 86.1769ZM240.877 82.8351V81.7032H246.213V82.8351H240.877Z" fill="black"/>
<path d="M235.881 84.9834L237.798 78.4692H239.362L237.021 85.9998H234.564L232.224 78.4692H233.787L235.704 84.9834H235.881Z" fill="black"/>
<path d="M229.877 85.9999L229.939 84.2135L229.885 83.9825V81.6109L229.893 81.2336C229.893 80.6535 229.744 80.2275 229.446 79.9554C229.154 79.6833 228.681 79.5473 228.029 79.5473C227.501 79.5473 227.01 79.6217 226.559 79.7706C226.107 79.9195 225.699 80.0914 225.334 80.2865L225.473 79.0237C225.678 78.9056 225.92 78.7901 226.197 78.6772C226.474 78.5643 226.787 78.4719 227.136 78.4C227.485 78.3281 227.868 78.2922 228.283 78.2922C228.853 78.2922 229.336 78.3615 229.731 78.5001C230.126 78.6336 230.445 78.8286 230.686 79.0853C230.927 79.342 231.102 79.65 231.209 80.0093C231.322 80.3686 231.379 80.769 231.379 81.2105V85.9999H229.877ZM227.329 86.1693C226.584 86.1693 226.015 85.9871 225.619 85.6226C225.224 85.253 225.026 84.7294 225.026 84.0518V83.8208C225.026 83.1021 225.247 82.5708 225.689 82.2269C226.135 81.8778 226.836 81.6366 227.791 81.5031L230.054 81.1797L230.139 82.2731L227.968 82.5811C227.449 82.653 227.08 82.7787 226.859 82.9584C226.638 83.1329 226.528 83.3922 226.528 83.7361V83.8439C226.528 84.1878 226.633 84.4522 226.844 84.637C227.059 84.8218 227.385 84.9142 227.821 84.9142C228.222 84.9142 228.566 84.8475 228.853 84.714C229.141 84.5805 229.374 84.4034 229.554 84.1827C229.734 83.9568 229.857 83.7079 229.924 83.4358L230.131 84.4445H229.854C229.772 84.7525 229.636 85.0374 229.446 85.2992C229.256 85.561 228.989 85.7715 228.645 85.9306C228.307 86.0897 227.868 86.1693 227.329 86.1693ZM229.1 75.4663H230.763V75.4894L228.969 77.5838H227.644V77.5607L229.1 75.4663Z" fill="black"/>
<path d="M219.559 86.1694C218.661 86.1694 217.976 85.887 217.503 85.3224C217.036 84.7577 216.803 83.9338 216.803 82.8507V81.6572C216.803 80.5638 217.039 79.7322 217.511 79.1624C217.989 78.5874 218.692 78.3 219.621 78.3C220.068 78.3 220.45 78.3718 220.768 78.5156C221.092 78.6542 221.353 78.8518 221.554 79.1085C221.759 79.3651 221.905 79.668 221.993 80.0171H222.493L222.07 81.4108C222.054 81.0001 221.964 80.6562 221.8 80.379C221.636 80.0966 221.41 79.8836 221.122 79.7399C220.835 79.5961 220.499 79.5243 220.114 79.5243C219.534 79.5243 219.09 79.6911 218.782 80.0248C218.474 80.3584 218.32 80.8538 218.32 81.5109V82.9508C218.32 83.5924 218.471 84.0801 218.774 84.4138C219.082 84.7474 219.529 84.9143 220.114 84.9143C220.468 84.9143 220.778 84.8475 221.045 84.7141C221.317 84.5806 221.543 84.3984 221.723 84.1674C221.903 83.9364 222.026 83.6771 222.093 83.3897L222.447 84.4523H222.008C221.926 84.7654 221.787 85.0529 221.592 85.3147C221.402 85.5765 221.143 85.7844 220.814 85.9384C220.486 86.0924 220.068 86.1694 219.559 86.1694ZM222.031 86L222.093 84.2367L222.07 83.7593V80.6331L222.077 80.3405L222.039 78.2076V75.8052H223.54V86H222.031Z" fill="black"/>
<path d="M210.188 78.4692V83.12C210.188 83.4794 210.237 83.7951 210.334 84.0671C210.437 84.3341 210.604 84.542 210.835 84.6908C211.066 84.8397 211.376 84.9141 211.766 84.9141C212.136 84.9141 212.452 84.8474 212.714 84.7139C212.98 84.5805 213.199 84.4008 213.368 84.1749C213.537 83.9439 213.655 83.6873 213.722 83.4049L213.969 84.4521H213.645C213.558 84.7653 213.414 85.0527 213.214 85.3145C213.014 85.5763 212.747 85.7842 212.413 85.9382C212.08 86.0922 211.666 86.1692 211.174 86.1692C210.588 86.1692 210.111 86.0589 209.741 85.8381C209.377 85.6123 209.107 85.2863 208.933 84.8602C208.763 84.429 208.679 83.9054 208.679 83.2894V78.4692H210.188ZM215.178 78.4692V85.9998H213.668L213.73 84.2365L213.668 84.1441V78.4692H215.178Z" fill="black"/>
<path d="M205.514 85.9997L205.576 84.2133L205.522 83.9823V81.6107L205.529 81.2334C205.529 80.6533 205.381 80.2273 205.083 79.9552C204.79 79.6831 204.318 79.5471 203.666 79.5471C203.137 79.5471 202.647 79.6215 202.195 79.7704C201.744 79.9193 201.336 80.0912 200.971 80.2863L201.11 79.0235C201.315 78.9054 201.556 78.7899 201.833 78.677C202.111 78.5641 202.424 78.4717 202.773 78.3998C203.122 78.3279 203.504 78.292 203.92 78.292C204.49 78.292 204.973 78.3613 205.368 78.4999C205.763 78.6334 206.081 78.8284 206.323 79.0851C206.564 79.3418 206.738 79.6498 206.846 80.0091C206.959 80.3684 207.016 80.7688 207.016 81.2103V85.9997H205.514ZM202.965 86.1691C202.221 86.1691 201.651 85.9869 201.256 85.6224C200.861 85.2528 200.663 84.7292 200.663 84.0516V83.8206C200.663 83.1019 200.884 82.5706 201.325 82.2267C201.772 81.8776 202.473 81.6364 203.427 81.5029L205.691 81.1795L205.776 82.2729L203.604 82.5809C203.086 82.6528 202.716 82.7785 202.496 82.9582C202.275 83.1327 202.165 83.392 202.165 83.7359V83.8437C202.165 84.1876 202.27 84.452 202.48 84.6368C202.696 84.8216 203.022 84.914 203.458 84.914C203.859 84.914 204.203 84.8473 204.49 84.7138C204.777 84.5803 205.011 84.4032 205.191 84.1825C205.37 83.9566 205.494 83.7077 205.56 83.4356L205.768 84.4443H205.491C205.409 84.7523 205.273 85.0372 205.083 85.299C204.893 85.5608 204.626 85.7713 204.282 85.9304C203.943 86.0895 203.504 86.1691 202.965 86.1691Z" fill="black"/>
<path d="M196.632 86.1772C196.026 86.1772 195.495 86.1156 195.038 85.9924C194.581 85.864 194.199 85.7254 193.891 85.5766L193.752 84.1983C194.132 84.3882 194.55 84.555 195.007 84.6988C195.464 84.8374 195.977 84.9067 196.547 84.9067C197.096 84.9067 197.502 84.8271 197.764 84.668C198.031 84.5037 198.164 84.2624 198.164 83.9442V83.8826C198.164 83.6772 198.11 83.5078 198.002 83.3744C197.895 83.2358 197.702 83.1126 197.425 83.0048C197.153 82.897 196.765 82.7866 196.262 82.6737C195.631 82.5299 195.133 82.3605 194.768 82.1655C194.404 81.9704 194.142 81.7317 193.983 81.4494C193.829 81.1619 193.752 80.818 193.752 80.4176V80.3483C193.752 79.6707 193.988 79.1573 194.46 78.8083C194.933 78.4592 195.641 78.2847 196.586 78.2847C197.181 78.2847 197.699 78.3488 198.141 78.4772C198.582 78.6055 198.947 78.7518 199.234 78.9161L199.373 80.1712C199.029 79.9864 198.636 79.8324 198.195 79.7092C197.759 79.5808 197.273 79.5167 196.74 79.5167C196.375 79.5167 196.082 79.5526 195.862 79.6245C195.641 79.6912 195.482 79.7887 195.384 79.9171C195.287 80.0403 195.238 80.1891 195.238 80.3637V80.4176C195.238 80.6075 195.289 80.7743 195.392 80.9181C195.495 81.0567 195.677 81.1824 195.939 81.2954C196.206 81.4032 196.575 81.5084 197.048 81.6111C197.684 81.7445 198.192 81.9011 198.572 82.0808C198.952 82.2604 199.227 82.4914 199.396 82.7738C199.565 83.051 199.65 83.4103 199.65 83.8518V83.9673C199.65 84.7013 199.399 85.2532 198.896 85.6228C198.392 85.9924 197.638 86.1772 196.632 86.1772Z" fill="black"/>
<path d="M187.02 86.1769C185.819 86.1769 184.918 85.892 184.317 85.3222C183.722 84.7473 183.424 83.9208 183.424 82.8428V81.6108C183.424 80.5482 183.701 79.7269 184.255 79.1468C184.815 78.5616 185.629 78.269 186.696 78.269C187.42 78.269 188.023 78.4025 188.506 78.6694C188.988 78.9312 189.35 79.3034 189.592 79.7859C189.833 80.2685 189.953 80.8408 189.953 81.503V81.7879C189.953 81.9625 189.946 82.1396 189.93 82.3192C189.915 82.4989 189.894 82.6709 189.869 82.8351H188.483C188.493 82.5682 188.498 82.3167 188.498 82.0805C188.503 81.8444 188.506 81.6288 188.506 81.4337C188.506 81.0179 188.439 80.6663 188.306 80.3788C188.172 80.0914 187.972 79.8732 187.705 79.7243C187.438 79.5703 187.102 79.4933 186.696 79.4933C186.096 79.4933 185.649 79.6653 185.357 80.0092C185.064 80.348 184.918 80.8331 184.918 81.4645V82.1729L184.925 82.35V83.0199C184.925 83.3023 184.966 83.5589 185.049 83.7899C185.136 84.0209 185.272 84.2211 185.457 84.3905C185.647 84.5548 185.89 84.6831 186.188 84.7755C186.486 84.8628 186.848 84.9064 187.274 84.9064C187.756 84.9064 188.208 84.8448 188.629 84.7216C189.055 84.5984 189.455 84.4342 189.83 84.2288L189.692 85.5147C189.353 85.7149 188.958 85.8766 188.506 85.9998C188.059 86.1179 187.564 86.1769 187.02 86.1769ZM184.225 82.8351V81.7032H189.561V82.8351H184.225Z" fill="black"/>
<path d="M177.737 85.9997L177.798 84.2133L177.744 83.9823V81.6107L177.752 81.2334C177.752 80.6533 177.603 80.2273 177.306 79.9552C177.013 79.6831 176.541 79.5471 175.889 79.5471C175.36 79.5471 174.87 79.6215 174.418 79.7704C173.966 79.9193 173.558 80.0912 173.194 80.2863L173.332 79.0235C173.538 78.9054 173.779 78.7899 174.056 78.677C174.333 78.5641 174.646 78.4717 174.996 78.3998C175.345 78.3279 175.727 78.292 176.143 78.292C176.713 78.292 177.195 78.3613 177.59 78.4999C177.986 78.6334 178.304 78.8284 178.545 79.0851C178.787 79.3418 178.961 79.6498 179.069 80.0091C179.182 80.3684 179.238 80.7688 179.238 81.2103V85.9997H177.737ZM175.188 86.1691C174.444 86.1691 173.874 85.9869 173.479 85.6224C173.083 85.2528 172.886 84.7292 172.886 84.0516V83.8206C172.886 83.1019 173.106 82.5706 173.548 82.2267C173.995 81.8776 174.695 81.6364 175.65 81.5029L177.914 81.1795L177.999 82.2729L175.827 82.5809C175.309 82.6528 174.939 82.7785 174.718 82.9582C174.498 83.1327 174.387 83.392 174.387 83.7359V83.8437C174.387 84.1876 174.492 84.452 174.703 84.6368C174.919 84.8216 175.245 84.914 175.681 84.914C176.081 84.914 176.425 84.8473 176.713 84.7138C177 84.5803 177.234 84.4032 177.413 84.1825C177.593 83.9566 177.716 83.7077 177.783 83.4356L177.991 84.4443H177.714C177.632 84.7523 177.495 85.0372 177.306 85.299C177.116 85.5608 176.849 85.7713 176.505 85.9304C176.166 86.0895 175.727 86.1691 175.188 86.1691Z" fill="black"/>
<path d="M168.5 83.7207C167.442 83.7207 166.631 83.4949 166.066 83.0431C165.502 82.5914 165.219 81.9472 165.219 81.1104V80.9872C165.219 80.4585 165.33 80.0016 165.55 79.6166C165.771 79.2265 166.123 78.9236 166.605 78.708C167.093 78.4873 167.73 78.3641 168.515 78.3384L172.427 78.2075V79.3856L170.332 79.2932V79.3779C170.63 79.4549 170.876 79.5756 171.071 79.7398C171.272 79.899 171.423 80.0992 171.526 80.3404C171.628 80.5817 171.68 80.8666 171.68 81.1951V81.2798C171.68 82.0704 171.41 82.6761 170.871 83.097C170.337 83.5128 169.547 83.7207 168.5 83.7207ZM168.438 87.7016H168.63C169.067 87.7016 169.436 87.6708 169.739 87.6092C170.042 87.5476 170.273 87.4501 170.432 87.3166C170.597 87.1832 170.679 87.0061 170.679 86.7853V86.7622C170.679 86.5004 170.586 86.3028 170.401 86.1693C170.217 86.041 169.896 85.9563 169.439 85.9152L167.268 85.7073L167.645 85.6919C167.398 85.733 167.18 85.7972 166.99 85.8844C166.806 85.9666 166.659 86.0744 166.551 86.2078C166.449 86.3464 166.397 86.5158 166.397 86.716V86.7314C166.397 86.9676 166.477 87.1575 166.636 87.3012C166.8 87.445 167.034 87.5476 167.337 87.6092C167.645 87.6708 168.012 87.7016 168.438 87.7016ZM168.346 88.9028C167.653 88.9028 167.055 88.8412 166.551 88.718C166.054 88.6 165.669 88.4075 165.396 88.1405C165.13 87.8787 164.996 87.5297 164.996 87.0933V87.0625C164.996 86.7699 165.06 86.5235 165.189 86.3233C165.322 86.1231 165.502 85.964 165.728 85.8459C165.959 85.7227 166.215 85.6406 166.498 85.5995V85.5225C166.123 85.4455 165.843 85.3198 165.658 85.1452C165.479 84.9656 165.389 84.7346 165.389 84.4522V84.4445C165.389 84.2495 165.432 84.0826 165.52 83.944C165.607 83.8003 165.738 83.6874 165.912 83.6052C166.092 83.518 166.315 83.4615 166.582 83.4358V83.2664L168.168 83.6514L167.591 83.6283C167.288 83.6335 167.078 83.672 166.96 83.7438C166.847 83.8157 166.79 83.9184 166.79 84.0518V84.0595C166.79 84.2135 166.875 84.329 167.044 84.406C167.219 84.4779 167.511 84.5369 167.922 84.5831L169.755 84.7833C170.566 84.8706 171.159 85.0682 171.533 85.3762C171.908 85.6842 172.095 86.1514 172.095 86.7776V86.8161C172.095 87.2987 171.954 87.6939 171.672 88.0019C171.395 88.3099 170.994 88.5358 170.471 88.6795C169.952 88.8284 169.329 88.9028 168.6 88.9028H168.346ZM168.476 82.6119C168.872 82.6119 169.2 82.5555 169.462 82.4425C169.729 82.3245 169.929 82.1499 170.063 81.9189C170.196 81.6879 170.263 81.4056 170.263 81.0719V80.9564C170.263 80.6279 170.196 80.3507 170.063 80.1248C169.934 79.899 169.739 79.727 169.477 79.6089C169.221 79.4909 168.895 79.4318 168.5 79.4318H168.461C168.035 79.4318 167.689 79.496 167.422 79.6243C167.155 79.7475 166.96 79.9246 166.836 80.1556C166.718 80.3815 166.659 80.651 166.659 80.9641V81.0719C166.659 81.4056 166.726 81.6879 166.859 81.9189C166.993 82.1499 167.193 82.3245 167.46 82.4425C167.732 82.5555 168.071 82.6119 168.476 82.6119Z" fill="black"/>
<path d="M162.147 85.9998V81.349C162.147 80.9845 162.095 80.6688 161.993 80.4019C161.895 80.135 161.731 79.9271 161.5 79.7782C161.274 79.6293 160.964 79.5549 160.568 79.5549C160.204 79.5549 159.888 79.6216 159.621 79.7551C159.354 79.8886 159.136 80.0682 158.967 80.2941C158.802 80.52 158.684 80.7766 158.613 81.0641L158.366 80.0169H158.69C158.777 79.6986 158.921 79.4112 159.121 79.1545C159.321 78.8927 159.588 78.6848 159.922 78.5308C160.255 78.3768 160.668 78.2998 161.161 78.2998C161.752 78.2998 162.229 78.4127 162.593 78.6386C162.958 78.8593 163.225 79.1827 163.394 79.6088C163.569 80.0349 163.656 80.5585 163.656 81.1796V85.9998H162.147ZM157.157 85.9998V78.4692H158.666L158.605 80.2325L158.666 80.3249V85.9998H157.157Z" fill="black"/>
<path d="M152.161 86.1923C151.053 86.1923 150.211 85.8972 149.636 85.3068C149.061 84.7165 148.773 83.8669 148.773 82.7581V81.6878C148.773 80.5842 149.061 79.7397 149.636 79.1545C150.211 78.5642 151.053 78.269 152.161 78.269C153.27 78.269 154.11 78.5642 154.679 79.1545C155.254 79.7397 155.542 80.5842 155.542 81.6878V82.7581C155.542 83.8669 155.254 84.7165 154.679 85.3068C154.11 85.8972 153.27 86.1923 152.161 86.1923ZM152.161 84.968C152.772 84.968 153.237 84.7858 153.555 84.4213C153.873 84.0569 154.033 83.5333 154.033 82.8505V81.5954C154.033 80.9178 153.873 80.3994 153.555 80.04C153.237 79.6756 152.772 79.4933 152.161 79.4933C151.551 79.4933 151.086 79.6756 150.768 80.04C150.449 80.3994 150.29 80.9178 150.29 81.5954V82.8505C150.29 83.5333 150.449 84.0569 150.768 84.4213C151.086 84.7858 151.551 84.968 152.161 84.968Z" fill="black"/>
<path d="M145.623 86V75.8052H147.132V86H145.623Z" fill="black"/>
<path d="M138.461 86.1772C137.855 86.1772 137.324 86.1156 136.867 85.9924C136.41 85.864 136.028 85.7254 135.72 85.5766L135.581 84.1983C135.961 84.3882 136.379 84.555 136.836 84.6988C137.293 84.8374 137.806 84.9067 138.376 84.9067C138.925 84.9067 139.331 84.8271 139.593 84.668C139.86 84.5037 139.993 84.2624 139.993 83.9442V83.8826C139.993 83.6772 139.939 83.5078 139.831 83.3744C139.724 83.2358 139.531 83.1126 139.254 83.0048C138.982 82.897 138.594 82.7866 138.091 82.6737C137.46 82.5299 136.962 82.3605 136.597 82.1655C136.233 81.9704 135.971 81.7317 135.812 81.4494C135.658 81.1619 135.581 80.818 135.581 80.4176V80.3483C135.581 79.6707 135.817 79.1573 136.289 78.8083C136.762 78.4592 137.47 78.2847 138.415 78.2847C139.01 78.2847 139.529 78.3488 139.97 78.4772C140.412 78.6055 140.776 78.7518 141.063 78.9161L141.202 80.1712C140.858 79.9864 140.465 79.8324 140.024 79.7092C139.588 79.5808 139.103 79.5167 138.569 79.5167C138.204 79.5167 137.912 79.5526 137.691 79.6245C137.47 79.6912 137.311 79.7887 137.213 79.9171C137.116 80.0403 137.067 80.1891 137.067 80.3637V80.4176C137.067 80.6075 137.118 80.7743 137.221 80.9181C137.324 81.0567 137.506 81.1824 137.768 81.2954C138.035 81.4032 138.404 81.5084 138.877 81.6111C139.513 81.7445 140.021 81.9011 140.401 82.0808C140.781 82.2604 141.056 82.4914 141.225 82.7738C141.395 83.051 141.479 83.4103 141.479 83.8518V83.9673C141.479 84.7013 141.228 85.2532 140.725 85.6228C140.222 85.9924 139.467 86.1772 138.461 86.1772Z" fill="black"/>
<path d="M132.621 85.9997V78.4691H134.13V85.9997H132.621ZM133.376 77.3603C133.078 77.3603 132.855 77.2859 132.706 77.137C132.562 76.983 132.49 76.7726 132.49 76.5056V76.4748C132.49 76.2079 132.562 76 132.706 75.8511C132.855 75.6971 133.078 75.6201 133.376 75.6201C133.673 75.6201 133.894 75.6971 134.038 75.8511C134.187 76 134.261 76.2079 134.261 76.4748V76.5056C134.261 76.7777 134.187 76.9882 134.038 77.137C133.894 77.2859 133.673 77.3603 133.376 77.3603Z" fill="black"/>
<path d="M129.311 85.9997L129.373 84.2133L129.319 83.9823V81.6107L129.326 81.2334C129.326 80.6533 129.177 80.2273 128.88 79.9552C128.587 79.6831 128.115 79.5471 127.463 79.5471C126.934 79.5471 126.444 79.6215 125.992 79.7704C125.541 79.9193 125.132 80.0912 124.768 80.2863L124.907 79.0235C125.112 78.9054 125.353 78.7899 125.63 78.677C125.908 78.5641 126.221 78.4717 126.57 78.3998C126.919 78.3279 127.301 78.292 127.717 78.292C128.287 78.292 128.769 78.3613 129.165 78.4999C129.56 78.6334 129.878 78.8284 130.119 79.0851C130.361 79.3418 130.535 79.6498 130.643 80.0091C130.756 80.3684 130.812 80.7688 130.812 81.2103V85.9997H129.311ZM126.762 86.1691C126.018 86.1691 125.448 85.9869 125.053 85.6224C124.658 85.2528 124.46 84.7292 124.46 84.0516V83.8206C124.46 83.1019 124.681 82.5706 125.122 82.2267C125.569 81.8776 126.269 81.6364 127.224 81.5029L129.488 81.1795L129.573 82.2729L127.401 82.5809C126.883 82.6528 126.513 82.7785 126.293 82.9582C126.072 83.1327 125.961 83.392 125.961 83.7359V83.8437C125.961 84.1876 126.067 84.452 126.277 84.6368C126.493 84.8216 126.819 84.914 127.255 84.914C127.655 84.914 127.999 84.8473 128.287 84.7138C128.574 84.5803 128.808 84.4032 128.988 84.1825C129.167 83.9566 129.29 83.7077 129.357 83.4356L129.565 84.4443H129.288C129.206 84.7523 129.07 85.0372 128.88 85.299C128.69 85.5608 128.423 85.7713 128.079 85.9304C127.74 86.0895 127.301 86.1691 126.762 86.1691Z" fill="black"/>
<path d="M121.561 85.9998V81.3105C121.561 80.9563 121.514 80.6483 121.422 80.3865C121.335 80.1196 121.186 79.9142 120.975 79.7705C120.77 79.6268 120.49 79.5549 120.136 79.5549C119.797 79.5549 119.505 79.6216 119.258 79.7551C119.012 79.8886 118.812 80.0682 118.658 80.2941C118.509 80.52 118.401 80.7766 118.334 81.0641L118.134 80.0169H118.311C118.404 79.714 118.545 79.4317 118.735 79.1699C118.925 78.9081 119.181 78.6976 119.505 78.5385C119.828 78.3794 120.236 78.2998 120.729 78.2998C121.283 78.2998 121.733 78.4102 122.076 78.6309C122.42 78.8465 122.672 79.1673 122.831 79.5934C122.99 80.0143 123.07 80.5302 123.07 81.1411V85.9998H121.561ZM112.205 85.9998V78.4692H113.714L113.653 80.2325L113.714 80.3249V85.9998H112.205ZM116.887 85.9998V81.3105C116.887 80.9563 116.84 80.6483 116.748 80.3865C116.661 80.1196 116.512 79.9142 116.301 79.7705C116.096 79.6268 115.816 79.5549 115.462 79.5549C115.123 79.5549 114.831 79.6216 114.584 79.7551C114.338 79.8886 114.138 80.0682 113.984 80.2941C113.835 80.52 113.727 80.7766 113.66 81.0641L113.414 80.0169H113.737C113.82 79.6986 113.953 79.4112 114.138 79.1545C114.328 78.8927 114.579 78.6848 114.892 78.5308C115.206 78.3768 115.591 78.2998 116.047 78.2998C116.746 78.2998 117.274 78.4795 117.634 78.8388C117.993 79.1981 118.219 79.7217 118.311 80.4096C118.337 80.5071 118.355 80.6175 118.365 80.7407C118.38 80.8639 118.388 80.9845 118.388 81.1026V85.9998H116.887Z" fill="black"/>
<path d="M106.226 85.9997L106.288 84.2133L106.234 83.9823V81.6107L106.241 81.2334C106.241 80.6533 106.093 80.2273 105.795 79.9552C105.502 79.6831 105.03 79.5471 104.378 79.5471C103.849 79.5471 103.359 79.6215 102.907 79.7704C102.456 79.9193 102.047 80.0912 101.683 80.2863L101.822 79.0235C102.027 78.9054 102.268 78.7899 102.545 78.677C102.823 78.5641 103.136 78.4717 103.485 78.3998C103.834 78.3279 104.216 78.292 104.632 78.292C105.202 78.292 105.684 78.3613 106.08 78.4999C106.475 78.6334 106.793 78.8284 107.035 79.0851C107.276 79.3418 107.45 79.6498 107.558 80.0091C107.671 80.3684 107.727 80.7688 107.727 81.2103V85.9997H106.226ZM103.677 86.1691C102.933 86.1691 102.363 85.9869 101.968 85.6224C101.573 85.2528 101.375 84.7292 101.375 84.0516V83.8206C101.375 83.1019 101.596 82.5706 102.037 82.2267C102.484 81.8776 103.184 81.6364 104.139 81.5029L106.403 81.1795L106.488 82.2729L104.316 82.5809C103.798 82.6528 103.428 82.7785 103.208 82.9582C102.987 83.1327 102.876 83.392 102.876 83.7359V83.8437C102.876 84.1876 102.982 84.452 103.192 84.6368C103.408 84.8216 103.734 84.914 104.17 84.914C104.57 84.914 104.914 84.8473 105.202 84.7138C105.489 84.5803 105.723 84.4032 105.903 84.1825C106.082 83.9566 106.205 83.7077 106.272 83.4356L106.48 84.4443H106.203C106.121 84.7523 105.985 85.0372 105.795 85.299C105.605 85.5608 105.338 85.7713 104.994 85.9304C104.655 86.0895 104.216 86.1691 103.677 86.1691Z" fill="black"/>
<path d="M95.908 86.1694C95.0096 86.1694 94.3243 85.887 93.8521 85.3224C93.3849 84.7577 93.1514 83.9338 93.1514 82.8507V81.6572C93.1514 80.5638 93.3875 79.7322 93.8598 79.1624C94.3372 78.5874 95.0404 78.3 95.9696 78.3C96.4162 78.3 96.7986 78.3718 97.1169 78.5156C97.4403 78.6542 97.7021 78.8518 97.9023 79.1085C98.1076 79.3651 98.2539 79.668 98.3412 80.0171H98.8417L98.4182 81.4108C98.4028 81.0001 98.3129 80.6562 98.1487 80.379C97.9844 80.0966 97.7585 79.8836 97.4711 79.7399C97.1836 79.5961 96.8474 79.5243 96.4624 79.5243C95.8823 79.5243 95.4383 79.6911 95.1303 80.0248C94.8223 80.3584 94.6683 80.8538 94.6683 81.5109V82.9508C94.6683 83.5924 94.8197 84.0801 95.1226 84.4138C95.4306 84.7474 95.8772 84.9143 96.4624 84.9143C96.8166 84.9143 97.1271 84.8475 97.3941 84.7141C97.6661 84.5806 97.892 84.3984 98.0717 84.1674C98.2513 83.9364 98.3745 83.6771 98.4413 83.3897L98.7955 84.4523H98.3566C98.2744 84.7654 98.1358 85.0529 97.9408 85.3147C97.7508 85.5765 97.4916 85.7844 97.1631 85.9384C96.8345 86.0924 96.4162 86.1694 95.908 86.1694ZM98.3797 86L98.4413 84.2367L98.4182 83.7593V80.6331L98.4259 80.3405L98.3874 78.2076V75.8052H99.8889V86H98.3797Z" fill="black"/>
<path d="M90.001 85.9997V78.4691H91.5102V85.9997H90.001ZM90.7556 77.3603C90.4579 77.3603 90.2346 77.2859 90.0857 77.137C89.942 76.983 89.8701 76.7726 89.8701 76.5056V76.4748C89.8701 76.2079 89.942 76 90.0857 75.8511C90.2346 75.6971 90.4579 75.6201 90.7556 75.6201C91.0533 75.6201 91.2741 75.6971 91.4178 75.8511C91.5667 76 91.6411 76.2079 91.6411 76.4748V76.5056C91.6411 76.7777 91.5667 76.9882 91.4178 77.137C91.2741 77.2859 91.0533 77.3603 90.7556 77.3603Z" fill="black"/>
<path d="M85.2649 84.9834L87.1822 78.4692H88.7453L86.4045 85.9998H83.9482L81.6074 78.4692H83.1705L85.0878 84.9834H85.2649Z" fill="black"/>
<path d="M76.2983 85.9997L76.3599 84.2133L76.306 83.9823V81.6107L76.3137 81.2334C76.3137 80.6533 76.1648 80.2273 75.8671 79.9552C75.5745 79.6831 75.1022 79.5471 74.4503 79.5471C73.9215 79.5471 73.4313 79.6215 72.9796 79.7704C72.5278 79.9193 72.1197 80.0912 71.7553 80.2863L71.8939 79.0235C72.0992 78.9054 72.3405 78.7899 72.6177 78.677C72.8949 78.5641 73.208 78.4717 73.5571 78.3998C73.9061 78.3279 74.2886 78.292 74.7044 78.292C75.2742 78.292 75.7567 78.3613 76.152 78.4999C76.5472 78.6334 76.8655 78.8284 77.1068 79.0851C77.348 79.3418 77.5226 79.6498 77.6304 80.0091C77.7433 80.3684 77.7998 80.7688 77.7998 81.2103V85.9997H76.2983ZM73.7496 86.1691C73.0052 86.1691 72.4354 85.9869 72.0402 85.6224C71.6449 85.2528 71.4473 84.7292 71.4473 84.0516V83.8206C71.4473 83.1019 71.668 82.5706 72.1095 82.2267C72.5561 81.8776 73.2568 81.6364 74.2116 81.5029L76.4754 81.1795L76.5601 82.2729L74.3887 82.5809C73.8702 82.6528 73.5006 82.7785 73.2799 82.9582C73.0591 83.1327 72.9488 83.392 72.9488 83.7359V83.8437C72.9488 84.1876 73.054 84.452 73.2645 84.6368C73.4801 84.8216 73.806 84.914 74.2424 84.914C74.6428 84.914 74.9867 84.8473 75.2742 84.7138C75.5616 84.5803 75.7952 84.4032 75.9749 84.1825C76.1545 83.9566 76.2777 83.7077 76.3445 83.4356L76.5524 84.4443H76.2752C76.193 84.7523 76.057 85.0372 75.8671 85.299C75.6771 85.5608 75.4102 85.7713 75.0663 85.9304C74.7275 86.0895 74.2886 86.1691 73.7496 86.1691Z" fill="black"/>
<path d="M68.5479 85.9998V81.3105C68.5479 80.9563 68.5017 80.6483 68.4093 80.3865C68.322 80.1196 68.1732 79.9142 67.9627 79.7705C67.7574 79.6268 67.4776 79.5549 67.1234 79.5549C66.7846 79.5549 66.492 79.6216 66.2456 79.7551C65.9992 79.8886 65.799 80.0682 65.645 80.2941C65.4961 80.52 65.3883 80.7766 65.3216 81.0641L65.1214 80.0169H65.2985C65.3909 79.714 65.5321 79.4317 65.722 79.1699C65.9119 78.9081 66.1686 78.6976 66.492 78.5385C66.8154 78.3794 67.2235 78.2998 67.7163 78.2998C68.2707 78.2998 68.7198 78.4102 69.0638 78.6309C69.4077 78.8465 69.6592 79.1673 69.8184 79.5934C69.9775 80.0143 70.0571 80.5302 70.0571 81.1411V85.9998H68.5479ZM59.1924 85.9998V78.4692H60.7016L60.64 80.2325L60.7016 80.3249V85.9998H59.1924ZM63.874 85.9998V81.3105C63.874 80.9563 63.8278 80.6483 63.7354 80.3865C63.6481 80.1196 63.4993 79.9142 63.2888 79.7705C63.0835 79.6268 62.8037 79.5549 62.4495 79.5549C62.1107 79.5549 61.8181 79.6216 61.5717 79.7551C61.3253 79.8886 61.1251 80.0682 60.9711 80.2941C60.8222 80.52 60.7144 80.7766 60.6477 81.0641L60.4013 80.0169H60.7247C60.8068 79.6986 60.9403 79.4112 61.1251 79.1545C61.315 78.8927 61.5666 78.6848 61.8797 78.5308C62.1928 78.3768 62.5778 78.2998 63.0347 78.2998C63.7328 78.2998 64.2616 78.4795 64.6209 78.8388C64.9802 79.1981 65.2061 79.7217 65.2985 80.4096C65.3242 80.5071 65.3421 80.6175 65.3524 80.7407C65.3678 80.8639 65.3755 80.9845 65.3755 81.1026V85.9998H63.874Z" fill="black"/>
<path d="M52.2934 78.4692V83.12C52.2934 83.4794 52.3421 83.7951 52.4397 84.0671C52.5423 84.3341 52.7092 84.542 52.9402 84.6908C53.1712 84.8397 53.4817 84.9141 53.8719 84.9141C54.2415 84.9141 54.5572 84.8474 54.819 84.7139C55.0859 84.5805 55.3041 84.4008 55.4735 84.1749C55.6429 83.9439 55.7609 83.6873 55.8277 83.4049L56.0741 84.4521H55.7507C55.6634 84.7653 55.5197 85.0527 55.3195 85.3145C55.1193 85.5763 54.8523 85.7842 54.5187 85.9382C54.185 86.0922 53.7718 86.1692 53.279 86.1692C52.6938 86.1692 52.2164 86.0589 51.8468 85.8381C51.4823 85.6123 51.2128 85.2863 51.0383 84.8602C50.8689 84.429 50.7842 83.9054 50.7842 83.2894V78.4692H52.2934ZM57.283 78.4692V85.9998H55.7738L55.8354 84.2365L55.7738 84.1441V78.4692H57.283Z" fill="black"/>
<path d="M44.8969 85.9997L44.9585 84.2133L44.9046 83.9823V81.6107L44.9123 81.2334C44.9123 80.6533 44.7634 80.2273 44.4657 79.9552C44.1731 79.6831 43.7008 79.5471 43.0489 79.5471C42.5202 79.5471 42.0299 79.6215 41.5782 79.7704C41.1265 79.9193 40.7184 80.0912 40.3539 80.2863L40.4925 79.0235C40.6978 78.9054 40.9391 78.7899 41.2163 78.677C41.4935 78.5641 41.8066 78.4717 42.1557 78.3998C42.5048 78.3279 42.8872 78.292 43.303 78.292C43.8728 78.292 44.3553 78.3613 44.7506 78.4999C45.1459 78.6334 45.4641 78.8284 45.7054 79.0851C45.9467 79.3418 46.1212 79.6498 46.229 80.0091C46.3419 80.3684 46.3984 80.7688 46.3984 81.2103V85.9997H44.8969ZM42.3482 86.1691C41.6039 86.1691 41.0341 85.9869 40.6388 85.6224C40.2435 85.2528 40.0459 84.7292 40.0459 84.0516V83.8206C40.0459 83.1019 40.2666 82.5706 40.7081 82.2267C41.1547 81.8776 41.8554 81.6364 42.8102 81.5029L45.074 81.1795L45.1587 82.2729L42.9873 82.5809C42.4688 82.6528 42.0992 82.7785 41.8785 82.9582C41.6578 83.1327 41.5474 83.392 41.5474 83.7359V83.8437C41.5474 84.1876 41.6526 84.452 41.8631 84.6368C42.0787 84.8216 42.4047 84.914 42.841 84.914C43.2414 84.914 43.5853 84.8473 43.8728 84.7138C44.1603 84.5803 44.3938 84.4032 44.5735 84.1825C44.7532 83.9566 44.8764 83.7077 44.9431 83.4356L45.151 84.4443H44.8738C44.7917 84.7523 44.6556 85.0372 44.4657 85.299C44.2758 85.5608 44.0088 85.7713 43.6649 85.9304C43.3261 86.0895 42.8872 86.1691 42.3482 86.1691Z" fill="black"/>
<path d="M36.2923 81.4494L35.9689 80.2713H36.3385C36.4977 79.6758 36.7646 79.2087 37.1393 78.8699C37.5141 78.526 38.0248 78.354 38.6716 78.354C38.8256 78.354 38.9617 78.3668 39.0797 78.3925C39.2029 78.413 39.3133 78.4387 39.4108 78.4695L39.5032 79.9402C39.38 79.8991 39.2414 79.8683 39.0874 79.8478C38.9334 79.8221 38.7666 79.8093 38.5869 79.8093C38.0377 79.8093 37.5628 79.9505 37.1624 80.2328C36.762 80.5151 36.472 80.9207 36.2923 81.4494ZM34.8447 86.0001V78.4695H36.3154L36.2461 80.664L36.3539 80.7718V86.0001H34.8447Z" fill="black"/>
<path d="M31.5571 85.9997L31.6187 84.2133L31.5648 83.9823V81.6107L31.5725 81.2334C31.5725 80.6533 31.4236 80.2273 31.1259 79.9552C30.8333 79.6831 30.361 79.5471 29.7091 79.5471C29.1803 79.5471 28.6901 79.6215 28.2384 79.7704C27.7866 79.9193 27.3785 80.0912 27.0141 80.2863L27.1527 79.0235C27.358 78.9054 27.5993 78.7899 27.8765 78.677C28.1537 78.5641 28.4668 78.4717 28.8159 78.3998C29.1649 78.3279 29.5474 78.292 29.9632 78.292C30.533 78.292 31.0155 78.3613 31.4108 78.4999C31.806 78.6334 32.1243 78.8284 32.3656 79.0851C32.6068 79.3418 32.7814 79.6498 32.8892 80.0091C33.0021 80.3684 33.0586 80.7688 33.0586 81.2103V85.9997H31.5571ZM29.0084 86.1691C28.264 86.1691 27.6942 85.9869 27.299 85.6224C26.9037 85.2528 26.7061 84.7292 26.7061 84.0516V83.8206C26.7061 83.1019 26.9268 82.5706 27.3683 82.2267C27.8149 81.8776 28.5156 81.6364 29.4704 81.5029L31.7342 81.1795L31.8189 82.2729L29.6475 82.5809C29.129 82.6528 28.7594 82.7785 28.5387 82.9582C28.3179 83.1327 28.2076 83.392 28.2076 83.7359V83.8437C28.2076 84.1876 28.3128 84.452 28.5233 84.6368C28.7389 84.8216 29.0648 84.914 29.5012 84.914C29.9016 84.914 30.2455 84.8473 30.533 84.7138C30.8204 84.5803 31.054 84.4032 31.2337 84.1825C31.4133 83.9566 31.5365 83.7077 31.6033 83.4356L31.8112 84.4443H31.534C31.4518 84.7523 31.3158 85.0372 31.1259 85.299C30.9359 85.5608 30.669 85.7713 30.3251 85.9304C29.9863 86.0895 29.5474 86.1691 29.0084 86.1691Z" fill="black"/>
<path d="M22.7172 86.1692C22.2706 86.1692 21.8856 86.0999 21.5622 85.9613C21.2439 85.8176 20.9847 85.6174 20.7845 85.3607C20.5843 85.0989 20.438 84.796 20.3456 84.4521H19.8451L20.2686 83.0276C20.284 83.4485 20.3738 83.8002 20.5381 84.0825C20.7023 84.3597 20.9282 84.5676 21.2157 84.7062C21.5083 84.8448 21.8445 84.9141 22.2244 84.9141C22.8044 84.9141 23.2485 84.7473 23.5565 84.4136C23.8645 84.0748 24.0185 83.5794 24.0185 82.9275V81.4876C24.0185 80.8459 23.8645 80.3583 23.5565 80.0246C23.2536 79.6909 22.8096 79.5241 22.2244 79.5241C21.8753 79.5241 21.5647 79.5908 21.2927 79.7243C21.0206 79.8578 20.7947 80.04 20.6151 80.271C20.4405 80.4969 20.3173 80.7561 20.2455 81.0487L19.8913 80.0169H20.3302C20.4174 79.6986 20.556 79.4112 20.746 79.1545C20.9359 78.8927 21.1951 78.6848 21.5237 78.5308C21.8573 78.3768 22.2757 78.2998 22.7788 78.2998C23.6771 78.2998 24.3598 78.5821 24.827 79.1468C25.2992 79.7115 25.5354 80.5354 25.5354 81.6185V82.812C25.5354 83.9054 25.2992 84.7396 24.827 85.3145C24.3547 85.8843 23.6514 86.1692 22.7172 86.1692ZM18.7979 88.6486V78.4692H20.3071L20.2455 80.2325L20.2686 80.6791V83.8361L20.2609 84.1287L20.2994 86.2616V88.6486H18.7979Z" fill="black"/>
<path d="M6.39062 85.9998L9.40903 76.1592H11.8037L14.8221 85.9998H13.259L10.7026 77.191H10.5101L7.95372 85.9998H6.39062ZM8.36182 83.2509V81.9727H12.8355V83.2509H8.36182Z" fill="black"/>
<path d="M4.97153 85.9998H3.42383V76.1592H4.97153V85.9998Z" fill="black"/>
<path d="M249 49.5L249 50.5L220 50.5L220 49.5L249 49.5Z" fill="black"/>
<path d="M60 49.5V50.5L36 50.5V49.5L60 49.5Z" fill="black"/>
<path d="M37.3174 20.8799L51.8291 20.8135L51.9307 42.0107L37.4189 42.0771L37.4873 56.3301L18.5 56.3809L15.7139 53L15.6543 42.1768L2.03223 42.2402L1.93066 22.5547L3.26758 21.0371L15.5391 20.9805L15.4746 9L18.5 6.51758L37.249 6.43066L37.3174 20.8799Z" fill="#53DDFF"/>
<path d="M31 21H2.88119L1 24.3196V39H2" stroke="black"/>
<path d="M16 21V8.52174L18.0602 7H31" stroke="black"/>
<path d="M38 21V13.7143L36 11.6327V4" stroke="black"/>
<path d="M6 42L15.3731 42V53.4074L17.5 56L36 56" stroke="black"/>
<path d="M54 42H38.0357L36 43.7778V58H22" stroke="black"/>
<circle cx="2" cy="2" r="1.5" transform="matrix(-1 0 0 1 54 16)" stroke="black"/>
<circle cx="2" cy="2" r="1.5" transform="matrix(-1 0 0 1 57 40)" stroke="black"/>
<circle cx="2" cy="2" r="1.5" transform="matrix(-1 0 0 1 23 56)" stroke="black"/>
<circle cx="2" cy="2" r="1.5" transform="matrix(-1 0 0 1 38 0)" stroke="black"/>
<circle cx="2" cy="2" r="1.5" transform="matrix(-1 0 0 1 34 5)" stroke="black"/>
<circle cx="2" cy="2" r="1.5" transform="matrix(-1 0 0 1 34 19)" stroke="black"/>
<circle cx="2" cy="2" r="1.5" transform="matrix(-1 0 0 1 7 40)" stroke="black"/>
<circle cx="1" cy="1" r="0.75" transform="matrix(-1 0 0 1 56 20)" stroke="black" stroke-width="0.5"/>
<path d="M50 42V26.5234L52 24.3738V19" stroke="black"/>
<path d="M37.5 21L54.5 21" stroke="black" stroke-width="0.5"/>
<path d="M225.316 40.0797C222.868 40.0797 221.044 40.4637 219.844 41.2317C218.644 41.9997 218.044 43.2717 218.044 45.0477C218.044 46.6797 218.644 47.9997 219.844 49.0077C221.092 50.0157 222.771 50.5197 224.883 50.5197C226.755 50.5197 228.435 50.2077 229.923 49.5837C231.459 48.9117 232.659 48.0237 233.523 46.9197C234.435 45.7677 234.963 44.4957 235.107 43.1037L236.691 49.7997C235.539 52.2957 233.763 54.1917 231.363 55.4877C228.963 56.7837 226.06 57.4317 222.652 57.4317C219.916 57.4317 217.539 56.9037 215.523 55.8477C213.507 54.7917 211.948 53.3757 210.844 51.5997C209.74 49.7757 209.188 47.7357 209.188 45.4797C209.188 41.9277 210.459 39.1437 213.003 37.1277C215.547 35.0637 219.147 34.0077 223.803 33.9597H236.115V40.0797H225.316ZM235.036 32.8077C235.036 30.5037 234.291 28.7037 232.803 27.4077C231.363 26.0637 229.204 25.3917 226.324 25.3917C224.548 25.3917 222.676 25.7277 220.708 26.3997C218.788 27.0237 216.844 27.9357 214.876 29.1357L211.492 23.0877C213.316 21.9837 215.067 21.0957 216.747 20.4237C218.427 19.7037 220.179 19.1757 222.003 18.8397C223.875 18.4557 226.011 18.2637 228.411 18.2637C233.451 18.2637 237.34 19.4637 240.076 21.8637C242.812 24.2637 244.203 27.5757 244.251 31.7997L244.324 56.9997H235.107L235.036 32.8077Z" fill="#53DDFF"/>
<path d="M191.403 18.6238H200.763V56.9998H191.403V18.6238ZM196.011 2.27979C197.547 2.27979 198.819 2.78378 199.827 3.79179C200.835 4.79978 201.339 6.07178 201.339 7.60778C201.339 9.09579 200.835 10.3678 199.827 11.4238C198.819 12.4318 197.547 12.9358 196.011 12.9358C194.523 12.9358 193.275 12.4318 192.267 11.4238C191.259 10.3678 190.755 9.09579 190.755 7.60778C190.755 6.07178 191.259 4.79978 192.267 3.79179C193.275 2.78378 194.523 2.27979 196.011 2.27979Z" fill="#53DDFF"/>
<path d="M146.827 18.624H156.619L166.699 48.36L176.563 18.624H185.995L171.307 57H161.659L146.827 18.624Z" fill="#53DDFF"/>
<path d="M131.364 3.57568H140.724V56.9997H131.364V3.57568Z" fill="#53DDFF"/>
<path d="M110.051 18.6238H119.411V56.9998H110.051V18.6238ZM114.659 2.27979C116.195 2.27979 117.467 2.78378 118.475 3.79179C119.483 4.79978 119.987 6.07178 119.987 7.60778C119.987 9.09579 119.483 10.3678 118.475 11.4238C117.467 12.4318 116.195 12.9358 114.659 12.9358C113.171 12.9358 111.923 12.4318 110.915 11.4238C109.907 10.3678 109.403 9.09579 109.403 7.60778C109.403 6.07178 109.907 4.79978 110.915 3.79179C111.923 2.78378 113.171 2.27979 114.659 2.27979Z" fill="#53DDFF"/>
<path d="M96.8801 19.0559C95.1041 17.9519 93.2801 17.0399 91.4081 16.3199C89.5841 15.5999 87.8561 15.0959 86.2241 14.8079C84.5921 14.4719 83.1041 14.3039 81.7601 14.3039C79.5041 14.3039 77.6801 14.7359 76.2881 15.5999C74.9441 16.4639 74.2721 17.7359 74.2721 19.4159C74.2721 20.9519 74.7521 22.1999 75.7121 23.1599C76.7201 24.1199 78.0161 24.9119 79.6001 25.5359C81.2321 26.1599 83.0081 26.7599 84.9281 27.3359C86.8481 27.9119 88.7681 28.5599 90.6881 29.2799C92.6081 29.9519 94.3601 30.8399 95.9441 31.9439C97.5761 33.0479 98.8721 34.4639 99.8321 36.1919C100.792 37.9199 101.272 40.0799 101.272 42.6719C101.272 45.7919 100.432 48.4559 98.7521 50.6639C97.0721 52.8719 94.7681 54.5759 91.8401 55.7759C88.9601 56.9759 85.6721 57.5759 81.9761 57.5759C79.2881 57.5759 76.6481 57.2399 74.0561 56.5679C71.5121 55.8479 69.0881 54.8879 66.7841 53.6879C64.5281 52.4879 62.4881 51.0959 60.6641 49.5119L64.6961 41.6639C66.4241 43.2479 68.2961 44.6159 70.3121 45.7679C72.3281 46.8719 74.3441 47.7359 76.3601 48.3599C78.4241 48.9359 80.3441 49.2239 82.1201 49.2239C84.8561 49.2239 86.9681 48.6959 88.4561 47.6399C89.9921 46.5839 90.7601 45.0959 90.7601 43.1759C90.7601 41.5919 90.2561 40.3199 89.2481 39.3599C88.2881 38.3999 87.0161 37.6079 85.4321 36.9839C83.8481 36.3119 82.0721 35.7359 80.1041 35.2559C78.1841 34.7279 76.2641 34.1279 74.3441 33.4559C72.4241 32.7359 70.6481 31.8479 69.0161 30.7919C67.4321 29.6879 66.1361 28.2959 65.1281 26.6159C64.1681 24.9359 63.6881 22.7999 63.6881 20.2079C63.6881 17.2799 64.4801 14.7599 66.0641 12.6479C67.6481 10.4879 69.8321 8.83188 72.6161 7.67988C75.4481 6.47988 78.7601 5.87988 82.5521 5.87988C85.9121 5.87988 89.1761 6.35988 92.3441 7.31988C95.5601 8.27988 98.3681 9.55188 100.768 11.1359L96.8801 19.0559Z" fill="#53DDFF"/>
<path d="M228.411 17.7637C233.526 17.7637 237.548 18.9821 240.405 21.4883C243.176 23.9189 244.611 27.2382 244.743 31.3896L244.751 31.7939L244.752 31.7979L244.823 56.998L244.825 57.5H234.609L234.607 57.001L234.597 53.7041C233.85 54.4535 233.006 55.1101 232.062 55.668L231.601 55.9277C229.112 57.2716 226.122 57.9316 222.651 57.9316C220.026 57.9316 217.701 57.4563 215.689 56.4902L215.291 56.291C213.334 55.2658 211.779 53.9052 210.641 52.208L210.419 51.8633L210.416 51.8584C209.262 49.9517 208.688 47.8212 208.688 45.4795C208.688 41.7914 210.017 38.8559 212.693 36.7354C215.355 34.5783 219.079 33.5086 223.799 33.46H234.537L234.535 32.8096V32.8076L234.527 32.4043C234.446 30.4172 233.751 28.8959 232.476 27.7852L232.462 27.7734C231.15 26.5486 229.134 25.8916 226.323 25.8916C224.611 25.8916 222.794 26.2159 220.869 26.873L220.862 26.875C218.984 27.4854 217.075 28.38 215.136 29.5625L214.692 29.833L214.439 29.3799L211.055 23.332L210.819 22.9102L211.232 22.6602C212.846 21.6838 214.407 20.8714 215.918 20.2256L216.562 19.959C218.058 19.3183 219.611 18.8272 221.219 18.4854L221.913 18.3477C223.823 17.9568 225.99 17.7637 228.411 17.7637ZM225.315 40.5801C223.053 40.5801 221.41 40.9148 220.323 41.5264L220.113 41.6523C219.093 42.3052 218.544 43.3943 218.544 45.0479C218.544 46.5391 219.083 47.7165 220.165 48.625C221.299 49.5373 222.854 50.0195 224.884 50.0195C226.697 50.0195 228.307 49.7184 229.723 49.126L229.995 49.002C231.337 48.374 232.376 47.5743 233.13 46.6113L233.132 46.6094L233.288 46.4053C233.978 45.4736 234.4 44.4675 234.566 43.3828L234.559 40.5801H225.315Z" stroke="black"/>
<path d="M201.263 18.1235V57.4995H190.903V18.1235H201.263ZM196.011 1.77979C197.668 1.77979 199.071 2.32849 200.181 3.43799L200.382 3.6499C201.356 4.72427 201.839 6.05428 201.839 7.60791C201.839 9.22168 201.287 10.6181 200.188 11.769L200.181 11.7778L200.18 11.7769C199.07 12.8863 197.668 13.436 196.011 13.436C194.397 13.436 193.019 12.8831 191.913 11.7769L191.905 11.769C190.807 10.6181 190.255 9.22168 190.255 7.60791C190.255 5.95066 190.804 4.54749 191.913 3.43799L192.124 3.23682C193.193 2.26484 194.498 1.77981 196.011 1.77979Z" stroke="black"/>
<path d="M156.978 18.124L157.093 18.4639L166.693 46.7861L176.089 18.4668L176.202 18.124H186.722L186.462 18.8027L171.774 57.1787L171.651 57.5H161.316L161.192 57.1807L146.36 18.8047L146.098 18.124H156.978Z" stroke="black"/>
<path d="M141.225 3.07568V57.4995H130.864V3.07568H141.225Z" stroke="black"/>
<path d="M119.911 18.1235V57.4995H109.552V18.1235H119.911ZM114.659 1.77979C116.316 1.77979 117.72 2.32849 118.829 3.43799L119.03 3.6499C120.005 4.72427 120.487 6.05428 120.487 7.60791C120.487 9.22168 119.936 10.6181 118.837 11.769L118.829 11.7778L118.828 11.7769C117.719 12.8863 116.316 13.436 114.659 13.436C113.045 13.436 111.668 12.8831 110.562 11.7769L110.554 11.769C109.455 10.6181 108.903 9.22168 108.903 7.60791C108.903 5.95066 109.452 4.54749 110.562 3.43799L110.772 3.23682C111.841 2.26484 113.146 1.77982 114.659 1.77979Z" stroke="black"/>
<path d="M82.5518 5.37988C85.9592 5.37988 89.2714 5.8669 92.4863 6.84082H92.4873C95.7425 7.81254 98.597 9.10375 101.044 10.7188L101.411 10.9609L101.217 11.3564L97.3291 19.2764L97.085 19.7725L96.6162 19.4805C94.8658 18.3924 93.0699 17.4943 91.2285 16.7861L91.2246 16.7852C89.4263 16.0753 87.7303 15.581 86.1367 15.2998L86.123 15.2979C84.5167 14.9671 83.0629 14.8037 81.7598 14.8037C79.567 14.8037 77.8452 15.2226 76.5576 16.0195L76.5586 16.0205C75.3663 16.787 74.7725 17.8956 74.7725 19.416C74.7725 20.8335 75.2088 21.9454 76.0566 22.7979L76.4277 23.1309C77.3234 23.8921 78.4385 24.5406 79.7832 25.0703H79.7822C81.4002 25.6888 83.1629 26.2849 85.0713 26.8574C86.9986 27.4356 88.926 28.0854 90.8525 28.8076H90.8535C92.8115 29.4929 94.6021 30.4001 96.2236 31.5293H96.2246C97.9218 32.6774 99.2715 34.1528 100.27 35.9492C101.282 37.771 101.772 40.0207 101.772 42.6719C101.772 45.8869 100.905 48.661 99.1504 50.9668C97.4096 53.2547 95.0289 55.0074 92.0312 56.2363L92.0322 56.2373C89.0812 57.4669 85.7256 58.0762 81.9756 58.0762C79.2456 58.0761 76.5636 57.7344 73.9307 57.0518L73.9199 57.0488C71.3437 56.3197 68.8875 55.3469 66.5527 54.1309L66.5488 54.1289C64.5477 53.0644 62.7116 51.8499 61.042 50.4844L60.3359 49.8896L60.04 49.6318L60.2197 49.2832L64.251 41.4355L64.5508 40.8525L65.0342 41.2949C66.734 42.8531 68.5747 44.1981 70.5566 45.3311C72.5424 46.4182 74.524 47.2672 76.502 47.8799C78.5281 48.4447 80.3998 48.7236 82.1201 48.7236C84.8013 48.7236 86.7962 48.2052 88.167 47.2324L88.1729 47.2275L88.4258 47.0439C89.6519 46.1007 90.2598 44.8272 90.2598 43.1758C90.2597 41.708 89.7982 40.5739 88.9033 39.7217L88.8945 39.7139C87.9937 38.8131 86.7848 38.0542 85.249 37.4492L85.2363 37.4443C83.6812 36.7846 81.9314 36.2159 79.9854 35.7412L79.9785 35.7402L79.9717 35.7383C78.0405 35.2072 76.1092 34.6034 74.1787 33.9277L74.1689 33.9238C72.2171 33.1919 70.4079 32.2885 68.7441 31.2119L68.7305 31.2021C67.0877 30.0572 65.743 28.6126 64.6992 26.873L64.6934 26.8643V26.8633C63.6783 25.0865 63.1885 22.8581 63.1885 20.208C63.1885 17.3732 63.9087 14.8858 65.3633 12.7666L65.6641 12.3477C67.2057 10.2471 69.2889 8.61484 71.8965 7.44531L72.4248 7.21777C75.3301 5.98743 78.7097 5.37992 82.5518 5.37988Z" stroke="black"/>
<path d="M158 49.5L158 50.5L100 50.5L100 49.5L158 49.5Z" fill="black"/>
<path d="M209.5 49.5L209.5 50.5L174.5 50.5L174.5 49.5L209.5 49.5Z" fill="black"/>
<path d="M249 50C249 49.4477 249.448 49 250 49C250.552 49 251 49.4477 251 50C251 50.5523 250.552 51 250 51V52C251.105 52 252 51.1046 252 50C252 48.8954 251.105 48 250 48C248.895 48 248 48.8954 248 50C248 51.1046 248.895 52 250 52V51C249.448 51 249 50.5523 249 50Z" fill="black"/>
</svg>
